<svg xmlns="http://www.w3.org/2000/svg" viewBox="0 0 96 100" role="img" aria-label="DTO"><path d="M24 0 H72 Q96 0 96 24 V60 Q96 84 72 84 H40 L22.6 97.8 Q18.6 100.9 19.7 95.9 L22.3 84 Q0 83.4 0 60 V24 Q0 0 24 0 Z" fill="#0F2136"/><g transform="translate(13.25,51.82)"><path d="M2.508 0.0V-22.638H11.748000000000001Q15.279 -22.638 17.753999999999998 -21.417Q20.229 -20.196 21.5655 -17.704500000000003Q22.902 -15.213000000000001 22.902 -11.319Q22.902 -7.458 21.5655 -4.95Q20.229 -2.442 17.753999999999998 -1.221Q15.279 0.0 11.748000000000001 0.0ZM7.425000000000001 -4.059H11.715Q13.200000000000001 -4.059 14.355 -4.4879999999999995Q15.510000000000002 -4.917 16.269000000000002 -5.7585Q17.028000000000002 -6.6000000000000005 17.424 -7.8705Q17.82 -9.141 17.82 -10.824V-11.814Q17.82 -13.497 17.424 -14.7675Q17.028000000000002 -16.038 16.269000000000002 -16.8795Q15.510000000000002 -17.721 14.355 -18.1665Q13.200000000000001 -18.612000000000002 11.715 -18.612000000000002H7.425000000000001Z M31.872 0.0V-18.513H24.612V-22.638H44.114999999999995V-18.513H36.822V0.0Z M57.408 0.396Q53.81100000000001 0.396 51.20400000000001 -0.891Q48.597 -2.178 47.211 -4.785Q45.825 -7.392 45.825 -11.319Q45.825 -15.312000000000001 47.211 -17.902500000000003Q48.597 -20.493000000000002 51.20400000000001 -21.7635Q53.81100000000001 -23.034000000000002 57.408 -23.034000000000002Q61.071000000000005 -23.034000000000002 63.661500000000004 -21.7635Q66.25200000000001 -20.493000000000002 67.638 -17.902500000000003Q69.024 -15.312000000000001 69.024 -11.319Q69.024 -7.392 67.638 -4.785Q66.25200000000001 -2.178 63.661500000000004 -0.891Q61.071000000000005 0.396 57.408 0.396ZM57.408 -3.6300000000000003Q59.025000000000006 -3.6300000000000003 60.24600000000001 -4.0920000000000005Q61.467000000000006 -4.554 62.292 -5.478Q63.117000000000004 -6.402 63.54600000000001 -7.7385Q63.97500000000001 -9.075000000000001 63.97500000000001 -10.791V-11.814Q63.97500000000001 -13.563 63.54600000000001 -14.916Q63.117000000000004 -16.269000000000002 62.292 -17.1765Q61.467000000000006 -18.084 60.24600000000001 -18.546Q59.025000000000006 -19.008000000000003 57.408 -19.008000000000003Q55.824000000000005 -19.008000000000003 54.60300000000001 -18.546Q53.382000000000005 -18.084 52.557 -17.1765Q51.732000000000006 -16.269000000000002 51.319500000000005 -14.916Q50.907000000000004 -13.563 50.907000000000004 -11.814V-10.791Q50.907000000000004 -9.075000000000001 51.319500000000005 -7.7385Q51.732000000000006 -6.402 52.557 -5.478Q53.382000000000005 -4.554 54.60300000000001 -4.0920000000000005Q55.824000000000005 -3.6300000000000003 57.408 -3.6300000000000003Z" fill="#FFFFFF"/></g></svg>