<svg xmlns="http://www.w3.org/2000/svg" viewBox="0 0 493 100" role="img" aria-label="Décroche ton oral"><g transform="translate(0,5.00) scale(0.9)"><path d="M24 0 H72 Q96 0 96 24 V60 Q96 84 72 84 H40 L22.6 97.8 Q18.6 100.9 19.7 95.9 L22.3 84 Q0 83.4 0 60 V24 Q0 0 24 0 Z" fill="#0F2136"/><g transform="translate(13.25,51.82)"><path d="M2.508 0.0V-22.638H11.748000000000001Q15.279 -22.638 17.753999999999998 -21.417Q20.229 -20.196 21.5655 -17.704500000000003Q22.902 -15.213000000000001 22.902 -11.319Q22.902 -7.458 21.5655 -4.95Q20.229 -2.442 17.753999999999998 -1.221Q15.279 0.0 11.748000000000001 0.0ZM7.425000000000001 -4.059H11.715Q13.200000000000001 -4.059 14.355 -4.4879999999999995Q15.510000000000002 -4.917 16.269000000000002 -5.7585Q17.028000000000002 -6.6000000000000005 17.424 -7.8705Q17.82 -9.141 17.82 -10.824V-11.814Q17.82 -13.497 17.424 -14.7675Q17.028000000000002 -16.038 16.269000000000002 -16.8795Q15.510000000000002 -17.721 14.355 -18.1665Q13.200000000000001 -18.612000000000002 11.715 -18.612000000000002H7.425000000000001Z M31.872 0.0V-18.513H24.612V-22.638H44.114999999999995V-18.513H36.822V0.0Z M57.408 0.396Q53.81100000000001 0.396 51.20400000000001 -0.891Q48.597 -2.178 47.211 -4.785Q45.825 -7.392 45.825 -11.319Q45.825 -15.312000000000001 47.211 -17.902500000000003Q48.597 -20.493000000000002 51.20400000000001 -21.7635Q53.81100000000001 -23.034000000000002 57.408 -23.034000000000002Q61.071000000000005 -23.034000000000002 63.661500000000004 -21.7635Q66.25200000000001 -20.493000000000002 67.638 -17.902500000000003Q69.024 -15.312000000000001 69.024 -11.319Q69.024 -7.392 67.638 -4.785Q66.25200000000001 -2.178 63.661500000000004 -0.891Q61.071000000000005 0.396 57.408 0.396ZM57.408 -3.6300000000000003Q59.025000000000006 -3.6300000000000003 60.24600000000001 -4.0920000000000005Q61.467000000000006 -4.554 62.292 -5.478Q63.117000000000004 -6.402 63.54600000000001 -7.7385Q63.97500000000001 -9.075000000000001 63.97500000000001 -10.791V-11.814Q63.97500000000001 -13.563 63.54600000000001 -14.916Q63.117000000000004 -16.269000000000002 62.292 -17.1765Q61.467000000000006 -18.084 60.24600000000001 -18.546Q59.025000000000006 -19.008000000000003 57.408 -19.008000000000003Q55.824000000000005 -19.008000000000003 54.60300000000001 -18.546Q53.382000000000005 -18.084 52.557 -17.1765Q51.732000000000006 -16.269000000000002 51.319500000000005 -14.916Q50.907000000000004 -13.563 50.907000000000004 -11.814V-10.791Q50.907000000000004 -9.075000000000001 51.319500000000005 -7.7385Q51.732000000000006 -6.402 52.557 -5.478Q53.382000000000005 -4.554 54.60300000000001 -4.0920000000000005Q55.824000000000005 -3.6300000000000003 57.408 -3.6300000000000003Z" fill="#FFFFFF"/></g></g><g transform="translate(112.40,65.09)"><path d="M3.344 0.0V-30.183999999999997H15.664Q20.372 -30.183999999999997 23.671999999999997 -28.555999999999997Q26.971999999999998 -26.927999999999997 28.753999999999998 -23.605999999999998Q30.535999999999998 -20.284 30.535999999999998 -15.091999999999999Q30.535999999999998 -9.943999999999999 28.753999999999998 -6.6Q26.971999999999998 -3.256 23.671999999999997 -1.628Q20.372 0.0 15.664 0.0ZM9.899999999999999 -5.412H15.62Q17.599999999999998 -5.412 19.14 -5.984Q20.68 -6.556 21.692 -7.677999999999999Q22.703999999999997 -8.799999999999999 23.232 -10.494Q23.759999999999998 -12.187999999999999 23.759999999999998 -14.431999999999999V-15.751999999999999Q23.759999999999998 -17.996 23.232 -19.689999999999998Q22.703999999999997 -21.384 21.692 -22.506Q20.68 -23.628 19.14 -24.222Q17.599999999999998 -24.816 15.62 -24.816H9.899999999999999Z M45.448 0.528Q41.62 0.528 39.024 -0.77Q36.428 -2.068 35.108 -4.752Q33.788 -7.436 33.788 -11.572Q33.788 -15.751999999999999 35.108 -18.414Q36.428 -21.076 39.001999999999995 -22.374Q41.576 -23.671999999999997 45.316 -23.671999999999997Q48.836 -23.671999999999997 51.256 -22.418Q53.676 -21.163999999999998 54.908 -18.546Q56.14 -15.927999999999999 56.14 -11.792V-10.208H39.992Q40.08 -8.184 40.629999999999995 -6.776Q41.18 -5.367999999999999 42.346000000000004 -4.686Q43.512 -4.004 45.448 -4.004Q46.504 -4.004 47.361999999999995 -4.268Q48.22 -4.532 48.836 -5.0600000000000005Q49.452 -5.588 49.804 -6.38Q50.156 -7.172 50.156 -8.184H56.14Q56.14 -5.984 55.348 -4.356Q54.556 -2.7279999999999998 53.147999999999996 -1.65Q51.739999999999995 -0.572 49.782 -0.021999999999999964Q47.824 0.528 45.448 0.528ZM40.08 -14.079999999999998H49.848Q49.848 -15.399999999999999 49.518 -16.368Q49.188 -17.336 48.616 -17.951999999999998Q48.044 -18.567999999999998 47.23 -18.854Q46.416 -19.14 45.403999999999996 -19.14Q43.732 -19.14 42.61 -18.59Q41.488 -18.04 40.894 -16.918Q40.3 -15.796 40.08 -14.079999999999998ZM42.104 -26.003999999999998 45.756 -31.811999999999998H52.048L52.135999999999996 -31.68L46.855999999999995 -26.003999999999998Z M70.392 0.528Q66.696 0.528 64.188 -0.77Q61.68 -2.068 60.382 -4.774Q59.083999999999996 -7.4799999999999995 59.083999999999996 -11.572Q59.083999999999996 -15.751999999999999 60.382 -18.414Q61.68 -21.076 64.21 -22.396Q66.74 -23.715999999999998 70.392 -23.715999999999998Q72.768 -23.715999999999998 74.682 -23.144Q76.596 -22.572 78.004 -21.384Q79.412 -20.195999999999998 80.138 -18.458Q80.864 -16.72 80.864 -14.344H74.74799999999999Q74.74799999999999 -15.927999999999999 74.264 -16.939999999999998Q73.78 -17.951999999999998 72.78999999999999 -18.479999999999997Q71.8 -19.008 70.304 -19.008Q68.544 -19.008 67.44399999999999 -18.216Q66.344 -17.424 65.816 -15.884Q65.288 -14.344 65.288 -12.056V-11.043999999999999Q65.288 -8.799999999999999 65.838 -7.26Q66.388 -5.72 67.53200000000001 -4.949999999999999Q68.676 -4.18 70.524 -4.18Q72.02 -4.18 73.00999999999999 -4.708Q74.0 -5.236 74.52799999999999 -6.292Q75.056 -7.348 75.056 -8.844H80.864Q80.864 -6.6 80.138 -4.84Q79.412 -3.0799999999999996 78.02600000000001 -1.892Q76.64 -0.704 74.70400000000001 -0.08799999999999997Q72.768 0.528 70.392 0.528Z M85.04 0.0V-23.144H90.10000000000001L90.584 -19.535999999999998H90.892Q91.33200000000001 -20.68 92.036 -21.625999999999998Q92.74000000000001 -22.572 93.796 -23.144Q94.852 -23.715999999999998 96.26 -23.715999999999998Q97.00800000000001 -23.715999999999998 97.62400000000001 -23.561999999999998Q98.24000000000001 -23.407999999999998 98.548 -23.276V-17.732H96.656Q95.292 -17.732 94.25800000000001 -17.357999999999997Q93.224 -16.983999999999998 92.52000000000001 -16.192Q91.816 -15.399999999999999 91.486 -14.256Q91.156 -13.112 91.156 -11.572V0.0Z M112.00800000000001 0.528Q108.22400000000002 0.528 105.58400000000002 -0.77Q102.94400000000002 -2.068 101.58000000000001 -4.774Q100.21600000000001 -7.4799999999999995 100.21600000000001 -11.572Q100.21600000000001 -15.751999999999999 101.58000000000001 -18.414Q102.94400000000002 -21.076 105.58400000000002 -22.374Q108.22400000000002 -23.671999999999997 112.00800000000001 -23.671999999999997Q115.88000000000001 -23.671999999999997 118.49800000000002 -22.374Q121.11600000000001 -21.076 122.48000000000002 -18.414Q123.84400000000001 -15.751999999999999 123.84400000000001 -11.572Q123.84400000000001 -7.4799999999999995 122.48000000000002 -4.774Q121.11600000000001 -2.068 118.49800000000002 -0.77Q115.88000000000001 0.528 112.00800000000001 0.528ZM112.00800000000001 -4.224Q114.03200000000001 -4.224 115.24200000000002 -4.9719999999999995Q116.45200000000001 -5.72 117.024 -7.26Q117.596 -8.799999999999999 117.596 -11.043999999999999V-12.1Q117.596 -14.344 117.024 -15.884Q116.45200000000001 -17.424 115.24200000000002 -18.194Q114.03200000000001 -18.964 112.00800000000001 -18.964Q110.028 -18.964 108.81800000000001 -18.194Q107.608 -17.424 107.036 -15.884Q106.46400000000001 -14.344 106.46400000000001 -12.1V-11.043999999999999Q106.46400000000001 -8.799999999999999 107.036 -7.26Q107.608 -5.72 108.81800000000001 -4.9719999999999995Q110.028 -4.224 112.00800000000001 -4.224Z M138.096 0.528Q134.4 0.528 131.892 -0.77Q129.38400000000001 -2.068 128.086 -4.774Q126.78800000000001 -7.4799999999999995 126.78800000000001 -11.572Q126.78800000000001 -15.751999999999999 128.086 -18.414Q129.38400000000001 -21.076 131.91400000000002 -22.396Q134.44400000000002 -23.715999999999998 138.096 -23.715999999999998Q140.472 -23.715999999999998 142.38600000000002 -23.144Q144.3 -22.572 145.70800000000003 -21.384Q147.116 -20.195999999999998 147.842 -18.458Q148.568 -16.72 148.568 -14.344H142.452Q142.452 -15.927999999999999 141.96800000000002 -16.939999999999998Q141.484 -17.951999999999998 140.49400000000003 -18.479999999999997Q139.50400000000002 -19.008 138.008 -19.008Q136.24800000000002 -19.008 135.14800000000002 -18.216Q134.048 -17.424 133.52 -15.884Q132.99200000000002 -14.344 132.99200000000002 -12.056V-11.043999999999999Q132.99200000000002 -8.799999999999999 133.54200000000003 -7.26Q134.092 -5.72 135.23600000000002 -4.949999999999999Q136.38000000000002 -4.18 138.228 -4.18Q139.72400000000002 -4.18 140.714 -4.708Q141.704 -5.236 142.23200000000003 -6.292Q142.76000000000002 -7.348 142.76000000000002 -8.844H148.568Q148.568 -6.6 147.842 -4.84Q147.116 -3.0799999999999996 145.73000000000002 -1.892Q144.34400000000002 -0.704 142.40800000000002 -0.08799999999999997Q140.472 0.528 138.096 0.528Z M152.74400000000003 0.0V-31.811999999999998H158.86V-20.592H159.16800000000003Q159.91600000000003 -21.516 160.95000000000005 -22.198Q161.98400000000004 -22.88 163.28200000000004 -23.275999999999996Q164.58 -23.671999999999997 166.12000000000003 -23.671999999999997Q168.40800000000002 -23.671999999999997 170.12400000000002 -22.836Q171.84000000000003 -22.0 172.78600000000003 -20.195999999999998Q173.73200000000003 -18.392 173.73200000000003 -15.488V0.0H167.616V-14.52Q167.616 -15.62 167.35200000000003 -16.39Q167.08800000000002 -17.16 166.58200000000002 -17.666Q166.07600000000002 -18.172 165.32800000000003 -18.392Q164.58 -18.612 163.65600000000003 -18.612Q162.29200000000003 -18.612 161.192 -17.951999999999998Q160.092 -17.291999999999998 159.476 -16.148Q158.86 -15.004 158.86 -13.508V0.0Z M189.348 0.528Q185.52 0.528 182.92400000000004 -0.77Q180.32800000000003 -2.068 179.00800000000004 -4.752Q177.68800000000002 -7.436 177.68800000000002 -11.572Q177.68800000000002 -15.751999999999999 179.00800000000004 -18.414Q180.32800000000003 -21.076 182.90200000000004 -22.374Q185.47600000000003 -23.671999999999997 189.216 -23.671999999999997Q192.73600000000002 -23.671999999999997 195.156 -22.418Q197.57600000000002 -21.163999999999998 198.80800000000002 -18.546Q200.04000000000002 -15.927999999999999 200.04000000000002 -11.792V-10.208H183.89200000000002Q183.98000000000002 -8.184 184.53000000000003 -6.776Q185.08 -5.367999999999999 186.246 -4.686Q187.412 -4.004 189.348 -4.004Q190.40400000000002 -4.004 191.262 -4.268Q192.12 -4.532 192.73600000000002 -5.0600000000000005Q193.35200000000003 -5.588 193.704 -6.38Q194.056 -7.172 194.056 -8.184H200.04000000000002Q200.04000000000002 -5.984 199.24800000000002 -4.356Q198.45600000000002 -2.7279999999999998 197.048 -1.65Q195.64000000000001 -0.572 193.68200000000002 -0.021999999999999964Q191.72400000000002 0.528 189.348 0.528ZM183.98000000000002 -14.079999999999998H193.74800000000002Q193.74800000000002 -15.399999999999999 193.418 -16.368Q193.08800000000002 -17.336 192.51600000000002 -17.951999999999998Q191.94400000000002 -18.567999999999998 191.13000000000002 -18.854Q190.31600000000003 -19.14 189.30400000000003 -19.14Q187.632 -19.14 186.51000000000002 -18.59Q185.38800000000003 -18.04 184.79400000000004 -16.918Q184.20000000000002 -15.796 183.98000000000002 -14.079999999999998Z M224.236 0.528Q222.036 0.528 220.672 -0.264Q219.308 -1.056 218.692 -2.3979999999999997Q218.076 -3.7399999999999998 218.076 -5.367999999999999V-18.436H215.216V-23.144H218.296L219.44 -29.744H224.192V-23.144H228.416V-18.436H224.192V-6.38Q224.192 -5.324 224.676 -4.774Q225.16 -4.224 226.26 -4.224H228.416V-0.176Q227.888 0.0 227.184 0.154Q226.48 0.308 225.688 0.41800000000000004Q224.896 0.528 224.236 0.528Z M242.624 0.528Q238.84 0.528 236.2 -0.77Q233.56 -2.068 232.196 -4.774Q230.832 -7.4799999999999995 230.832 -11.572Q230.832 -15.751999999999999 232.196 -18.414Q233.56 -21.076 236.2 -22.374Q238.84 -23.671999999999997 242.624 -23.671999999999997Q246.49599999999998 -23.671999999999997 249.11399999999998 -22.374Q251.732 -21.076 253.096 -18.414Q254.45999999999998 -15.751999999999999 254.45999999999998 -11.572Q254.45999999999998 -7.4799999999999995 253.096 -4.774Q251.732 -2.068 249.11399999999998 -0.77Q246.49599999999998 0.528 242.624 0.528ZM242.624 -4.224Q244.648 -4.224 245.858 -4.9719999999999995Q247.06799999999998 -5.72 247.64 -7.26Q248.212 -8.799999999999999 248.212 -11.043999999999999V-12.1Q248.212 -14.344 247.64 -15.884Q247.06799999999998 -17.424 245.858 -18.194Q244.648 -18.964 242.624 -18.964Q240.644 -18.964 239.434 -18.194Q238.224 -17.424 237.652 -15.884Q237.07999999999998 -14.344 237.07999999999998 -12.1V-11.043999999999999Q237.07999999999998 -8.799999999999999 237.652 -7.26Q238.224 -5.72 239.434 -4.9719999999999995Q240.644 -4.224 242.624 -4.224Z M258.548 0.0V-23.144H263.608L264.092 -19.976H264.4Q265.192 -21.119999999999997 266.31399999999996 -21.955999999999996Q267.436 -22.791999999999998 268.844 -23.232Q270.252 -23.671999999999997 271.924 -23.671999999999997Q274.212 -23.671999999999997 275.928 -22.836Q277.644 -22.0 278.59000000000003 -20.195999999999998Q279.536 -18.392 279.536 -15.488V0.0H273.42V-14.52Q273.42 -15.62 273.156 -16.39Q272.892 -17.16 272.38599999999997 -17.666Q271.88 -18.172 271.132 -18.392Q270.384 -18.612 269.46 -18.612Q268.096 -18.612 266.996 -17.951999999999998Q265.896 -17.291999999999998 265.28 -16.148Q264.664 -15.004 264.664 -13.508V0.0Z" fill="#0F2136"/><path d="M310.38399999999996 0.528Q306.59999999999997 0.528 303.9599999999999 -0.77Q301.31999999999994 -2.068 299.95599999999996 -4.774Q298.592 -7.4799999999999995 298.592 -11.572Q298.592 -15.751999999999999 299.95599999999996 -18.414Q301.31999999999994 -21.076 303.9599999999999 -22.374Q306.59999999999997 -23.671999999999997 310.38399999999996 -23.671999999999997Q314.256 -23.671999999999997 316.87399999999997 -22.374Q319.49199999999996 -21.076 320.856 -18.414Q322.21999999999997 -15.751999999999999 322.21999999999997 -11.572Q322.21999999999997 -7.4799999999999995 320.856 -4.774Q319.49199999999996 -2.068 316.87399999999997 -0.77Q314.256 0.528 310.38399999999996 0.528ZM310.38399999999996 -4.224Q312.40799999999996 -4.224 313.61799999999994 -4.9719999999999995Q314.828 -5.72 315.4 -7.26Q315.972 -8.799999999999999 315.972 -11.043999999999999V-12.1Q315.972 -14.344 315.4 -15.884Q314.828 -17.424 313.61799999999994 -18.194Q312.40799999999996 -18.964 310.38399999999996 -18.964Q308.40399999999994 -18.964 307.19399999999996 -18.194Q305.984 -17.424 305.412 -15.884Q304.84 -14.344 304.84 -12.1V-11.043999999999999Q304.84 -8.799999999999999 305.412 -7.26Q305.984 -5.72 307.19399999999996 -4.9719999999999995Q308.40399999999994 -4.224 310.38399999999996 -4.224Z M326.30799999999994 0.0V-23.144H331.36799999999994L331.852 -19.535999999999998H332.15999999999997Q332.59999999999997 -20.68 333.304 -21.625999999999998Q334.008 -22.572 335.06399999999996 -23.144Q336.11999999999995 -23.715999999999998 337.52799999999996 -23.715999999999998Q338.27599999999995 -23.715999999999998 338.89199999999994 -23.561999999999998Q339.508 -23.407999999999998 339.816 -23.276V-17.732H337.924Q336.55999999999995 -17.732 335.52599999999995 -17.357999999999997Q334.49199999999996 -16.983999999999998 333.78799999999995 -16.192Q333.08399999999995 -15.399999999999999 332.75399999999996 -14.256Q332.424 -13.112 332.424 -11.572V0.0Z M348.74399999999997 0.528Q347.59999999999997 0.528 346.30199999999996 0.264Q345.00399999999996 0.0 343.85999999999996 -0.6819999999999999Q342.71599999999995 -1.3639999999999999 341.98999999999995 -2.662Q341.26399999999995 -3.96 341.26399999999995 -5.984Q341.26399999999995 -8.404 342.31999999999994 -9.988Q343.376 -11.572 345.33399999999995 -12.474Q347.292 -13.376 350.02 -13.727999999999998Q352.74799999999993 -14.079999999999998 356.04799999999994 -14.079999999999998V-15.796Q356.04799999999994 -16.808 355.71799999999996 -17.555999999999997Q355.388 -18.304 354.57399999999996 -18.744Q353.75999999999993 -19.183999999999997 352.30799999999994 -19.183999999999997Q350.85599999999994 -19.183999999999997 349.95399999999995 -18.832Q349.05199999999996 -18.48 348.678 -17.93Q348.304 -17.38 348.304 -16.72V-16.192H342.364Q342.31999999999994 -16.412 342.31999999999994 -16.61Q342.31999999999994 -16.808 342.31999999999994 -17.116Q342.31999999999994 -19.14 343.5519999999999 -20.613999999999997Q344.78399999999993 -22.087999999999997 347.0279999999999 -22.879999999999995Q349.27199999999993 -23.671999999999997 352.26399999999995 -23.671999999999997Q355.47599999999994 -23.671999999999997 357.65399999999994 -22.836Q359.83199999999994 -22.0 360.99799999999993 -20.372Q362.16399999999993 -18.744 362.16399999999993 -16.279999999999998V-5.763999999999999Q362.16399999999993 -4.9719999999999995 362.626 -4.598Q363.08799999999997 -4.224 363.65999999999997 -4.224H365.11199999999997V-0.21999999999999997Q364.67199999999997 0.0 363.74799999999993 0.242Q362.82399999999996 0.484 361.50399999999996 0.484Q360.22799999999995 0.484 359.23799999999994 0.10999999999999999Q358.24799999999993 -0.264 357.58799999999997 -0.946Q356.92799999999994 -1.628 356.66399999999993 -2.5959999999999996H356.35599999999994Q355.60799999999995 -1.672 354.53 -0.968Q353.45199999999994 -0.264 352.02199999999993 0.132Q350.5919999999999 0.528 348.74399999999997 0.528ZM350.81199999999995 -4.092Q352.044 -4.092 353.01199999999994 -4.465999999999999Q353.97999999999996 -4.84 354.64 -5.478Q355.29999999999995 -6.116 355.674 -7.039999999999999Q356.04799999999994 -7.9639999999999995 356.04799999999994 -9.02V-10.296Q353.58399999999995 -10.296 351.6479999999999 -9.966Q349.71199999999993 -9.636 348.5899999999999 -8.844Q347.46799999999996 -8.052 347.46799999999996 -6.643999999999999Q347.46799999999996 -5.851999999999999 347.8639999999999 -5.279999999999999Q348.25999999999993 -4.707999999999999 349.0079999999999 -4.3999999999999995Q349.756 -4.092 350.81199999999995 -4.092Z M367.74799999999993 0.0V-31.811999999999998H373.864V0.0Z" fill="#1D5FD6"/></g></svg>